<svg xmlns="http://www.w3.org/2000/svg" xmlns:xlink="http://www.w3.org/1999/xlink"><symbol id="css" viewBox="0 0 124 141.53"><path d="M10.383 126.892 0 0l124 .255-10.979 126.637-50.553 14.638z" fill="#fff"/><path d="M62.468 129.275V12.085l51.064.17-9.106 104.85z" fill="#fff"/><path d="M100.851 27.064H22.298l2.128 15.318h37.276l-36.68 15.745 2.127 14.808h54.043l-1.958 20.68-18.298 3.575-16.595-4.255-1.277-11.745H27.83l2.042 24.426 32.681 9.106 31.32-9.957 4-47.745H64.765l36.085-14.978z"/></symbol><symbol id="discord" viewBox="0 0 100 100"><path fill="currentColor" d="M85.22 24.958c-11.459-8.575-22.438-8.334-22.438-8.334l-1.122 1.282c13.623 4.087 19.954 10.097 19.954 10.097-19.491-10.731-44.317-10.654-64.59 0 0 0 6.571-6.331 20.996-10.418l-.801-.962s-10.899-.24-22.438 8.334c0 0-11.54 20.755-11.54 46.319 0 0 6.732 11.54 24.442 12.101 0 0 2.965-3.526 5.369-6.571-10.177-3.045-14.024-9.376-14.024-9.376 6.394 4.001 12.859 6.505 20.916 8.094 13.108 2.698 29.413-.076 41.591-8.094 0 0-4.007 6.491-14.505 9.456a625.034 625.034 0 0 0 5.289 6.411c17.71-.561 24.441-12.101 24.441-12.02-.001-25.564-11.54-46.319-11.54-46.319zM35.055 63.824c-4.488 0-8.174-3.927-8.174-8.815.328-11.707 16.102-11.671 16.348 0 0 4.888-3.607 8.815-8.174 8.815zm29.249 0c-4.488 0-8.174-3.927-8.174-8.815.36-11.684 15.937-11.689 16.348 0 0 4.888-3.606 8.815-8.174 8.815z"/></symbol><symbol id="figma" viewBox="0 0 7.678 7.68"><path d="M2.56 7.68A1.28 1.28 0 0 0 3.84 6.4V5.12H2.56a1.28 1.28 0 0 0 0 2.56zM1.28 3.84a1.28 1.28 0 0 1 1.28-1.28h1.28v2.56H2.56a1.28 1.28 0 0 1-1.28-1.28z" fill="#fff"/><path d="M1.28 1.28A1.28 1.28 0 0 1 2.559 0h1.28v2.56H2.56a1.28 1.28 0 0 1-1.28-1.28zM3.84 0h1.28a1.28 1.28 0 0 1 0 2.56H3.84z" fill="#fff"/><path d="M6.4 3.84a1.28 1.28 0 0 1-2.56 0 1.28 1.28 0 0 1 2.56 0z" fill="#fff"/></symbol><symbol id="git" viewBox="0 0 32 32"><path d="M29.472 14.753 17.247 2.528a1.8 1.8 0 0 0-2.55 0l-2.539 2.539 3.22 3.22a2.141 2.141 0 0 1 2.712 2.73l3.1 3.1a2.143 2.143 0 1 1-1.285 1.21l-2.895-2.895v7.617a2.141 2.141 0 1 1-1.764-.062V12.3a2.146 2.146 0 0 1-1.165-2.814l-3.17-3.172L2.528 14.7a1.8 1.8 0 0 0 0 2.551l12.225 12.221a1.8 1.8 0 0 0 2.55 0L29.472 17.3a1.8 1.8 0 0 0 0-2.551" fill="#fff"/><path d="m12.158 5.067 3.22 3.22a2.141 2.141 0 0 1 2.712 2.73l3.1 3.1a2.143 2.143 0 1 1-1.285 1.21l-2.895-2.895v7.617a2.141 2.141 0 1 1-1.764-.062V12.3a2.146 2.146 0 0 1-1.165-2.814l-3.17-3.172"/></symbol><symbol id="github" viewBox="0 0 438.549 438.549"><path fill="currentColor" d="M409.132 114.573c-19.608-33.596-46.205-60.194-79.798-79.8-33.598-19.607-70.277-29.408-110.063-29.408-39.781 0-76.472 9.804-110.063 29.408-33.596 19.605-60.192 46.204-79.8 79.8C9.803 148.168 0 184.854 0 224.63c0 47.78 13.94 90.745 41.827 128.906 27.884 38.164 63.906 64.572 108.063 79.227 5.14.954 8.945.283 11.419-1.996 2.475-2.282 3.711-5.14 3.711-8.562 0-.571-.049-5.708-.144-15.417a2549.81 2549.81 0 0 1-.144-25.406l-6.567 1.136c-4.187.767-9.469 1.092-15.846 1-6.374-.089-12.991-.757-19.842-1.999-6.854-1.231-13.229-4.086-19.13-8.559-5.898-4.473-10.085-10.328-12.56-17.556l-2.855-6.57c-1.903-4.374-4.899-9.233-8.992-14.559-4.093-5.331-8.232-8.945-12.419-10.848l-1.999-1.431c-1.332-.951-2.568-2.098-3.711-3.429-1.142-1.331-1.997-2.663-2.568-3.997-.572-1.335-.098-2.43 1.427-3.289 1.525-.859 4.281-1.276 8.28-1.276l5.708.853c3.807.763 8.516 3.042 14.133 6.851 5.614 3.806 10.229 8.754 13.846 14.842 4.38 7.806 9.657 13.754 15.846 17.847 6.184 4.093 12.419 6.136 18.699 6.136 6.28 0 11.704-.476 16.274-1.423 4.565-.952 8.848-2.383 12.847-4.285 1.713-12.758 6.377-22.559 13.988-29.41-10.848-1.14-20.601-2.857-29.264-5.14-8.658-2.286-17.605-5.996-26.835-11.14-9.235-5.137-16.896-11.516-22.985-19.126-6.09-7.614-11.088-17.61-14.987-29.979-3.901-12.374-5.852-26.648-5.852-42.826 0-23.035 7.52-42.637 22.557-58.817-7.044-17.318-6.379-36.732 1.997-58.24 5.52-1.715 13.706-.428 24.554 3.853 10.85 4.283 18.794 7.952 23.84 10.994 5.046 3.041 9.089 5.618 12.135 7.708 17.705-4.947 35.976-7.421 54.818-7.421s37.117 2.474 54.823 7.421l10.849-6.849c7.419-4.57 16.18-8.758 26.262-12.565 10.088-3.805 17.802-4.853 23.134-3.138 8.562 21.509 9.325 40.922 2.279 58.24 15.036 16.18 22.559 35.787 22.559 58.817 0 16.178-1.958 30.497-5.853 42.966-3.9 12.471-8.941 22.457-15.125 29.979-6.191 7.521-13.901 13.85-23.131 18.986-9.232 5.14-18.182 8.85-26.84 11.136-8.662 2.286-18.415 4.004-29.263 5.146 9.894 8.562 14.842 22.077 14.842 40.539v60.237c0 3.422 1.19 6.279 3.572 8.562 2.379 2.279 6.136 2.95 11.276 1.995 44.163-14.653 80.185-41.062 108.068-79.226 27.88-38.161 41.825-81.126 41.825-128.906-.01-39.771-9.818-76.454-29.414-110.049z"/></symbol><symbol id="gulp" viewBox="0 0 256 566"><path d="m197.28 548.749 5.427-90.43 14.985-25.58s-34.106 13.952-91.205 13.952c-57.1 0-90.689-13.694-90.689-13.694l16.794 27.904 5.941 87.848c0 9.418 31.059 17.052 69.374 17.052 38.313 0 69.373-7.634 69.373-17.052m-17.119-422.295 11.391-45.025 63.081-66.376L238.007.892l-66.784 70.707-13.226 53.793a886.14 886.14 0 0 0-29.873-.497c-70.336 0-127.355 8.016-127.355 17.902 0 9.887 57.019 17.902 127.355 17.902 70.335 0 127.353-8.015 127.353-17.902 0-7.28-30.924-13.546-75.316-16.343" fill="#fff"/><path d="M173.535 151.669s-2.467.553-9.724.584c-7.259.03-12.413-.047-14.466-1.917-.552-.502-.854-1.499-.851-2.174.006-1.285.918-2.042 2.08-2.516l1.099 1.724c-.478.165-.751.36-.752.568-.004.976 7.422 1.644 13.102 1.572 5.681-.07 12.545-.538 12.551-1.5 0-.291-.519-.565-1.422-.781l1.094-1.712c1.472.457 2.757 1.34 2.754 2.868-.014 2.598-3.32 2.993-5.465 3.284M254.509 15.184c1.586-1.832-.821-6.518-5.376-10.465C244.576.774 239.596-.94 238.007.892c-1.587 1.832.821 6.518 5.378 10.463 4.555 3.946 9.537 5.662 11.124 3.829m-60.263 312.681c-1.495-14.384 31.462-35.216 23.004-35.883-18.208 1.041-27.27 21.338-36.431 42.596-3.357 7.791-14.844 41.013-22.378 36.923-7.532-4.088 9.765-31.407 14.613-47.631-5.594 4.102-26.109 20.041-31.396 5.114-8.5 7.219-26.663 11.13-24.614-7.833-4.522 8.01-14.671 19.193-26.853 14.546-15.998-6.101 9.27-57.062 15.553-54.491 6.284 2.57-1.268 14.179-3.246 18.687-4.35 9.921-9.375 22.393-6.018 24.946 5.751 4.374 21.401-16.547 21.749-17.007 2.927-3.867 11.266-29.166 17.987-26.261 6.721 2.905-16.764 36.308-7.983 42.937 1.771 1.338 9.017-.825 13.425-5.594 2.852-3.085 1.871-9.918 11.378-32.59 9.507-22.671 17.98-50.905 24.5-48.754 6.52 2.15 1.146 16.641-1.193 22.043-10.976 25.354-29.956 67.241-21.005 64.07 8.951-3.17 13.612-3.356 22.377-13.613 8.765-10.257 8.361-27.152 14.203-26.793 5.844.36 4.863 5.777 3.446 9.902 5.75-6.58 27.256-20.438 32.448-6.713 6.15 16.249-30.769 39.72-21.564 38.523 8.975-1.167 23.515-10.376 29.723-18.749l17.088-153.626s-17.195 14.23-126.589 14.23c-109.395 0-124.811-13.934-124.811-13.934l14.548 140.224c7.722-21.947 26.059-66.339 54.963-64.849 13.148.678 30.7 25.995 15.665 26.853-6.364.362-7.01-12.637-14.546-14.546-5.438-1.378-13.009 3.043-17.902 7.833-9.758 9.55-30.745 47.229-27.972 66.014 3.533 23.949 33.048-8.322 38.042-17.903 3.517-6.749 5.893-26.745 13.585-24.647 7.693 2.098-.671 22.734-6.247 40.979-6.264 20.487-9.557 42.098-17.408 39.612-7.852-2.484 4.938-28.932 4.475-33.566-7.38 6.809-20.976 24.047-38.37 15.515l9.035 87.078s24.013 18.973 96.35 18.973c72.337 0 97.239-18.677 97.239-18.677l11.219-100.857c-9.179 8.938-38.229 24.81-40.089 6.919" fill="#fff"/></symbol><symbol id="html" viewBox="0 0 124 141.532"><path d="M10.383 126.894 0 0l124 .255-10.979 126.639-50.553 14.638z" fill="#fff"/><path d="M62.468 129.277V12.085l51.064.17-9.106 104.851z" fill="#fff"/><path d="m99.49 41.362 1.446-15.49H22.383l4.34 47.49h54.213L78.81 93.617l-17.362 4.68-17.617-5.106-.936-12.085H27.319l2.128 24.681 32 8.936 32.255-8.936 4.34-48.17H41.107L39.49 41.362z"/></symbol><symbol id="illustrator" viewBox="0 0 240 234"><rect width="240" height="234" fill="#fff" rx="42.5"/><path d="M116.3 140.428H79.11l-7.568 23.506a1.894 1.894 0 0 1-1.932 1.45H50.773q-1.61 0-1.127-1.772l32.2-92.736q.484-1.449.967-3.3a34.478 34.478 0 0 0 .643-6.52.996.996 0 0 1 1.128-1.128h25.598q1.125 0 1.288.805l36.548 103.04q.482 1.612-.967 1.61h-20.93a1.488 1.488 0 0 1-1.61-1.127Zm-31.395-20.286h25.438q-.966-3.218-2.254-7.245-1.29-4.022-2.736-8.613l-2.899-9.177q-1.449-4.589-2.656-8.855-1.208-4.264-2.173-7.809h-.162a130.107 130.107 0 0 1-3.38 12.88q-2.257 7.245-4.59 14.812-2.335 7.57-4.588 14.007ZM169.75 76.994a11.678 11.678 0 0 1-8.855-3.542 12.737 12.737 0 0 1-3.38-9.177 11.813 11.813 0 0 1 3.622-8.935 12.441 12.441 0 0 1 8.935-3.462q5.797 0 9.097 3.462a12.43 12.43 0 0 1 3.3 8.935 12.574 12.574 0 0 1-3.461 9.177 12.354 12.354 0 0 1-9.258 3.542Zm-11.109 86.78V86.814c0-.966.428-1.449 1.288-1.449h19.803q1.287 0 1.289 1.45v76.957q0 1.612-1.289 1.61H160.09q-1.448 0-1.449-1.61Z"/></symbol><symbol id="javascript" viewBox="0 0 1052 1052"><path fill="#fff" d="M0 0h1052v1052H0z"/><path d="M965.9 801.1c-7.7-48-39-88.3-131.7-125.9-32.2-14.8-68.1-25.399-78.8-49.8-3.8-14.2-4.3-22.2-1.9-30.8 6.9-27.9 40.2-36.6 66.6-28.6 17 5.7 33.1 18.801 42.8 39.7 45.4-29.399 45.3-29.2 77-49.399-11.6-18-17.8-26.301-25.4-34-27.3-30.5-64.5-46.2-124-45-10.3 1.3-20.699 2.699-31 4-29.699 7.5-58 23.1-74.6 44-49.8 56.5-35.6 155.399 25 196.1 59.7 44.8 147.4 55 158.6 96.9 10.9 51.3-37.699 67.899-86 62-35.6-7.4-55.399-25.5-76.8-58.4-39.399 22.8-39.399 22.8-79.899 46.1 9.6 21 19.699 30.5 35.8 48.7 76.2 77.3 266.899 73.5 301.1-43.5 1.399-4.001 10.6-30.801 3.199-72.101zm-394-317.6h-98.4c0 85-.399 169.4-.399 254.4 0 54.1 2.8 103.7-6 118.9-14.4 29.899-51.7 26.2-68.7 20.399-17.3-8.5-26.1-20.6-36.3-37.699-2.8-4.9-4.9-8.7-5.601-9-26.699 16.3-53.3 32.699-80 49 13.301 27.3 32.9 51 58 66.399 37.5 22.5 87.9 29.4 140.601 17.3 34.3-10 63.899-30.699 79.399-62.199 22.4-41.3 17.6-91.3 17.4-146.6.5-90.2 0-180.4 0-270.9z"/></symbol><symbol id="nodejs" viewBox="0 0 640 512"><g fill="#fff"><path d="M316.3 452c-2.1 0-4.2-.6-6.1-1.6L291 439c-2.9-1.6-1.5-2.2-.5-2.5 3.8-1.3 4.6-1.6 8.7-4 .4-.2 1-.1 1.4.1l14.8 8.8c.5.3 1.3.3 1.8 0L375 408c.5-.3.9-.9.9-1.6v-66.7c0-.7-.3-1.3-.9-1.6l-57.8-33.3c-.5-.3-1.2-.3-1.8 0l-57.8 33.3c-.6.3-.9 1-.9 1.6v66.7c0 .6.4 1.2.9 1.5l15.8 9.1c8.6 4.3 13.9-.8 13.9-5.8v-65.9c0-.9.7-1.7 1.7-1.7h7.3c.9 0 1.7.7 1.7 1.7v65.9c0 11.5-6.2 18-17.1 18-3.3 0-6 0-13.3-3.6l-15.2-8.7c-3.7-2.2-6.1-6.2-6.1-10.5v-66.7c0-4.3 2.3-8.4 6.1-10.5l57.8-33.4c3.7-2.1 8.5-2.1 12.1 0l57.8 33.4c3.7 2.2 6.1 6.2 6.1 10.5v66.7c0 4.3-2.3 8.4-6.1 10.5l-57.8 33.4c-1.7 1.1-3.8 1.7-6 1.7zm46.7-65.8c0-12.5-8.4-15.8-26.2-18.2-18-2.4-19.8-3.6-19.8-7.8 0-3.5 1.5-8.1 14.8-8.1 11.9 0 16.3 2.6 18.1 10.6.2.8.8 1.3 1.6 1.3h7.5c.5 0 .9-.2 1.2-.5.3-.4.5-.8.4-1.3-1.2-13.8-10.3-20.2-28.8-20.2-16.5 0-26.3 7-26.3 18.6 0 12.7 9.8 16.1 25.6 17.7 18.9 1.9 20.4 4.6 20.4 8.3 0 6.5-5.2 9.2-17.4 9.2-15.3 0-18.7-3.8-19.8-11.4-.1-.8-.8-1.4-1.7-1.4h-7.5c-.9 0-1.7.7-1.7 1.7 0 9.7 5.3 21.3 30.6 21.3 18.5 0 29-7.2 29-19.8zm54.5-50.1c0 6.1-5 11.1-11.1 11.1s-11.1-5-11.1-11.1c0-6.3 5.2-11.1 11.1-11.1 6-.1 11.1 4.8 11.1 11.1zm-1.8 0c0-5.2-4.2-9.3-9.4-9.3-5.1 0-9.3 4.1-9.3 9.3 0 5.2 4.2 9.4 9.3 9.4 5.2-.1 9.4-4.3 9.4-9.4zm-4.5 6.2h-2.6c-.1-.6-.5-3.8-.5-3.9-.2-.7-.4-1.1-1.3-1.1h-2.2v5h-2.4v-12.5h4.3c1.5 0 4.4 0 4.4 3.3 0 2.3-1.5 2.8-2.4 3.1 1.7.1 1.8 1.2 2.1 2.8.1 1 .3 2.7.6 3.3zm-2.8-8.8c0-1.7-1.2-1.7-1.8-1.7h-2v3.5h1.9c1.6 0 1.9-1.1 1.9-1.8zM137.3 191c0-2.7-1.4-5.1-3.7-6.4l-61.3-35.3c-1-.6-2.2-.9-3.4-1h-.6c-1.2 0-2.3.4-3.4 1L3.7 184.6C1.4 185.9 0 188.4 0 191l.1 95c0 1.3.7 2.5 1.8 3.2 1.1.7 2.5.7 3.7 0L42 268.3c2.3-1.4 3.7-3.8 3.7-6.4v-44.4c0-2.6 1.4-5.1 3.7-6.4l15.5-8.9c1.2-.7 2.4-1 3.7-1 1.3 0 2.6.3 3.7 1l15.5 8.9c2.3 1.3 3.7 3.8 3.7 6.4v44.4c0 2.6 1.4 5.1 3.7 6.4l36.4 20.9c1.1.7 2.6.7 3.7 0 1.1-.6 1.8-1.9 1.8-3.2l.2-95zM472.5 87.3v176.4c0 2.6-1.4 5.1-3.7 6.4l-61.3 35.4c-2.3 1.3-5.1 1.3-7.4 0l-61.3-35.4c-2.3-1.3-3.7-3.8-3.7-6.4v-70.8c0-2.6 1.4-5.1 3.7-6.4l61.3-35.4c2.3-1.3 5.1-1.3 7.4 0l15.3 8.8c1.7 1 3.9-.3 3.9-2.2v-94c0-2.8 3-4.6 5.5-3.2l36.5 20.4c2.3 1.2 3.8 3.7 3.8 6.4zm-46 128.9c0-.7-.4-1.3-.9-1.6l-21-12.2c-.6-.3-1.3-.3-1.9 0l-21 12.2c-.6.3-.9.9-.9 1.6v24.3c0 .7.4 1.3.9 1.6l21 12.1c.6.3 1.3.3 1.8 0l21-12.1c.6-.3.9-.9.9-1.6v-24.3zm209.8-.7c2.3-1.3 3.7-3.8 3.7-6.4V192c0-2.6-1.4-5.1-3.7-6.4l-60.9-35.4c-2.3-1.3-5.1-1.3-7.4 0l-61.3 35.4c-2.3 1.3-3.7 3.8-3.7 6.4v70.8c0 2.7 1.4 5.1 3.7 6.4l60.9 34.7c2.2 1.3 5 1.3 7.3 0l36.8-20.5c2.5-1.4 2.5-5 0-6.4L550 241.6c-1.2-.7-1.9-1.9-1.9-3.2v-22.2c0-1.3.7-2.5 1.9-3.2l19.2-11.1c1.1-.7 2.6-.7 3.7 0l19.2 11.1c1.1.7 1.9 1.9 1.9 3.2v17.4c0 2.8 3.1 4.6 5.6 3.2l36.7-21.3zM559 219c-.4.3-.7.7-.7 1.2v13.6c0 .5.3 1 .7 1.2l11.8 6.8c.4.3 1 .3 1.4 0L584 235c.4-.3.7-.7.7-1.2v-13.6c0-.5-.3-1-.7-1.2l-11.8-6.8c-.4-.3-1-.3-1.4 0L559 219zm-254.2 43.5v-70.4c0-2.6-1.6-5.1-3.9-6.4l-61.1-35.2c-2.1-1.2-5-1.4-7.4 0l-61.1 35.2c-2.3 1.3-3.9 3.7-3.9 6.4v70.4c0 2.8 1.9 5.2 4 6.4l61.2 35.2c2.4 1.4 5.2 1.3 7.4 0l61-35.2c1.8-1 3.1-2.7 3.6-4.7.1-.5.2-1.1.2-1.7zm-74.3-124.9-.8.5h1.1l-.3-.5zm76.2 130.2-.4-.7v.9l.4-.2z"/></g></symbol><symbol id="photoshop" viewBox="0 0 240 234"><g fill="fff"><rect width="240" height="234" fill="#fff" rx="42.5"/><path fill="#000" d="M54.042 164.095V61.216c0-.75.322-1.127.966-1.127 1.715 0 3.282-.025 5.644-.08q3.54-.08 7.647-.161 4.106-.08 8.695-.161 4.588-.08 9.096-.08 12.234 0 20.608 3.058a35.755 35.755 0 0 1 13.444 8.211 31.496 31.496 0 0 1 7.325 11.35 37.649 37.649 0 0 1 2.254 12.961q0 12.883-5.957 21.252a33.658 33.658 0 0 1-16.1 12.156c-6.762 2.523-14.276 3.379-22.54 3.379q-3.543 0-4.991-.08-1.449-.08-4.347-.082v32.122a1.28 1.28 0 0 1-1.449 1.45H55.169c-.752 0-1.127-.428-1.127-1.289ZM75.786 79.41v33.555q2.09.162 3.864.161h5.313a37.76 37.76 0 0 0 11.512-1.838 17.358 17.358 0 0 0 8.21-5.313q3.14-3.701 3.14-10.304a16.283 16.283 0 0 0-2.335-8.855 15.014 15.014 0 0 0-7.003-5.715 29.84 29.84 0 0 0-11.753-2.013q-3.864 0-6.842.08-2.981.084-4.106.242ZM191.971 106.863a37.643 37.643 0 0 0-9.58-3.381 50.875 50.875 0 0 0-11.189-1.288 20.822 20.822 0 0 0-6.037.724 5.425 5.425 0 0 0-3.14 2.013 5.07 5.07 0 0 0-.805 2.737 4.275 4.275 0 0 0 .966 2.576 10.958 10.958 0 0 0 3.38 2.656 67.449 67.449 0 0 0 7.085 3.3 70.2 70.2 0 0 1 15.375 7.326 23.382 23.382 0 0 1 7.89 8.292 22.107 22.107 0 0 1 2.334 10.304 23.143 23.143 0 0 1-3.864 13.282 25.416 25.416 0 0 1-11.19 8.936q-7.328 3.219-18.112 3.22a65.504 65.504 0 0 1-13.605-1.288 43.408 43.408 0 0 1-10.223-3.22 2.085 2.085 0 0 1-1.127-1.932v-17.388a.946.946 0 0 1 .403-.886.781.781 0 0 1 .885.08 43.011 43.011 0 0 0 12.397 4.911 51.122 51.122 0 0 0 11.753 1.53q5.634 0 8.291-1.45a4.551 4.551 0 0 0 2.657-4.185q0-2.09-2.415-4.025-2.415-1.932-9.821-4.67a59.184 59.184 0 0 1-14.249-7.244 24.572 24.572 0 0 1-7.567-8.453 22.202 22.202 0 0 1-2.334-10.223 23.08 23.08 0 0 1 3.38-12.075 24.57 24.57 0 0 1 10.466-9.177q7.083-3.54 17.71-3.542a78.401 78.401 0 0 1 12.397.885 32.497 32.497 0 0 1 8.63 2.335 1.468 1.468 0 0 1 .967.885 4.449 4.449 0 0 1 .16 1.208v16.26a1.082 1.082 0 0 1-.482.967 1.556 1.556 0 0 1-1.386 0Z"/></g></symbol><symbol id="sass" viewBox="0 0 512 384"><path fill="#fff" d="M440.6 220.6c-17.9.101-33.4 4.4-46.4 10.801-4.8-9.5-9.6-17.801-10.399-24-.9-7.2-2-11.601-.9-20.2C384 178.6 389 166.4 389 165.4c-.101-.9-1.101-5.3-11.4-5.4s-19.2 2-20.2 4.7-3 8.9-4.3 15.3c-1.8 9.4-20.6 42.7-31.3 60.2-3.5-6.8-6.5-12.8-7.101-17.601-.899-7.199-2-11.6-.899-20.199 1.1-8.601 6.1-20.8 6.1-21.8-.1-.9-1.1-5.3-11.399-5.4-10.301-.1-19.2 2-20.2 4.7s-2.1 9.1-4.3 15.3C281.9 201.4 256.9 257 250.4 271.5c-3.3 7.4-6.199 13.3-8.3 17.3-2.1 4-.1.3-.3.7-1.8 3.4-2.8 5.3-2.8 5.3v.101c-1.4 2.5-2.9 4.899-3.601 4.899-.5 0-1.5-6.7.2-15.899 3.7-19.301 12.7-49.4 12.601-50.5 0-.5 1.699-5.801-5.801-8.5-7.3-2.7-9.899 1.8-10.5 1.8-.6 0-1.1 1.6-1.1 1.6s8.1-33.899-15.5-33.899c-14.8 0-35.2 16.1-45.3 30.8-6.4 3.5-20 10.899-34.4 18.8-5.5 3-11.2 6.2-16.6 9.1L117.9 251.9c-28.6-30.5-81.5-52.1-79.3-93.1.8-14.9 6-54.2 101.601-101.8 78.3-39 141-28.3 151.899-4.5 15.5 34-33.5 97.2-114.899 106.3-31 3.5-47.301-8.5-51.4-13-4.3-4.7-4.9-4.9-6.5-4-2.6 1.4-1 5.6 0 8.1 2.4 6.3 12.4 17.5 29.4 23.1 14.899 4.9 51.3 7.6 95.3-9.4 49.3-19.1 87.8-72.1 76.5-116.4-11.5-45.1-86.3-59.9-157-34.8C121.4 27.4 75.8 50.8 43 81.5 4 117.9-2.2 149.7.4 162.9c9.101 47.1 74 77.8 100 100.5-1.3.699-2.5 1.399-3.6 2-13 6.399-62.5 32.3-74.9 59.699-14 31 2.2 53.301 13 56.301 33.4 9.3 67.6-7.4 86.1-34.9 18.399-27.5 16.2-63.2 7.7-79.5l-.301-.6 10.2-6c6.601-3.9 13.101-7.5 18.8-10.601-3.199 8.7-5.5 19-6.699 34-1.4 17.601 5.8 40.4 15.3 49.4 4.2 3.899 9.2 4 12.3 4 11 0 16-9.101 21.5-20 6.8-13.3 12.8-28.7 12.8-28.7s-7.5 41.7 13 41.7c7.5 0 15-9.7 18.4-14.7v.1s.2-.3.6-1a36.13 36.13 0 0 0 1.2-1.899v-.2c3-5.2 9.7-17.1 19.7-36.8 12.899-25.4 25.3-57.2 25.3-57.2s1.2 7.8 4.9 20.6c2.199 7.601 6.999 15.9 10.699 24-3 4.2-4.8 6.601-4.8 6.601l.1.1c-2.399 3.2-5.1 6.601-7.899 10-10.2 12.2-22.4 26.101-24 30.101-1.9 4.699-1.5 8.199 2.2 11 2.7 2 7.5 2.399 12.6 2 9.2-.601 15.6-2.9 18.8-4.301 5-1.8 10.7-4.5 16.2-8.5 10-7.399 16.1-17.899 15.5-31.899-.3-7.7-2.8-15.3-5.9-22.5.9-1.3 1.801-2.601 2.7-4 15.8-23.101 28-48.5 28-48.5s1.2 7.8 4.9 20.6c1.899 6.5 5.7 13.601 9.1 20.601-14.8 12.1-24.1 26.1-27.3 35.3-5.9 17-1.3 24.7 7.4 26.5 3.899.8 9.5-1 13.699-2.8 5.2-1.7 11.5-4.601 17.301-8.9 10-7.4 19.6-17.7 19.1-31.6-.3-6.4-2-12.7-4.3-18.7 12.6-5.2 28.899-8.2 49.6-5.7 44.5 5.2 53.3 33 51.601 44.6-1.7 11.601-11 18-14.101 20-3.1 1.9-4.1 2.601-3.8 4 .4 2.101 1.8 2 4.5 1.601 3.7-.601 23.4-9.5 24.2-30.899 1.2-27.504-24.9-57.504-71.2-57.205zM97.4 336.3c-14.7 16.1-35.4 22.2-44.2 17-9.5-5.5-5.801-29.2 12.3-46.3 11-10.4 25.3-20 34.7-25.9 2.1-1.3 5.3-3.199 9.1-5.5.6-.399 1-.6 1-.6.7-.4 1.5-.9 2.3-1.4 6.7 24.4.3 45.8-15.2 62.7zm107.5-73.1c-5.1 12.5-15.9 44.6-22.4 42.8-5.601-1.5-9-25.8-1.101-49.8 4-12.101 12.5-26.5 17.5-32.101 8.101-9 16.9-12 19.101-8.3 2.6 4.801-9.9 39.601-13.1 47.401zm88.7 42.4c-2.2 1.101-4.2 1.9-5.1 1.301-.7-.4.899-1.9.899-1.9s11.1-11.9 15.5-17.4c2.5-3.199 5.5-6.899 8.7-11.1v1.2C313.6 292.1 299.8 301.7 293.6 305.6zm68.399-15.6c-1.6-1.2-1.399-4.9 4-16.5 2.101-4.6 6.9-12.3 15.2-19.6 1 3 1.601 5.899 1.5 8.6-.099 18-12.899 24.7-20.7 27.5z"/></symbol><symbol id="telegram" viewBox="0 0 24 24"><g fill="currentColor"><path d="m22.44 4.622-3.17 14.944c-.239 1.055-.862 1.317-1.748.82l-4.828-3.558-2.33 2.242c-.258.258-.473.473-.97.473l.347-4.917 8.948-8.086c.39-.346-.084-.54-.604-.192L7.022 13.314 2.26 11.823c-1.036-.323-1.055-1.036.216-1.533l18.628-7.177c.862-.323 1.617.192 1.335 1.51Z"/></g></symbol><symbol id="vk" viewBox="0 0 24 24"><g fill="currentColor"><path d="M23.45 5.948c.166-.546 0-.948-.795-.948H20.03c-.668 0-.976.347-1.143.73 0 0-1.335 3.196-3.226 5.272-.612.602-.89.793-1.224.793-.167 0-.418-.191-.418-.738V5.948c0-.656-.184-.948-.74-.948H9.151c-.417 0-.668.304-.668.593 0 .621.946.765 1.043 2.513v3.798c0 .833-.153.984-.487.984-.89 0-3.055-3.211-4.34-6.885C4.45 5.288 4.198 5 3.527 5H.9c-.75 0-.9.347-.9.73 0 .682.89 4.07 4.145 8.551C6.315 17.341 9.37 19 12.153 19c1.669 0 1.875-.368 1.875-1.003v-2.313c0-.737.158-.884.687-.884.39 0 1.057.192 2.615 1.667C19.11 18.216 19.403 19 20.405 19h2.625c.75 0 1.126-.368.91-1.096-.238-.724-1.088-1.775-2.215-3.022-.612-.71-1.53-1.475-1.809-1.858-.389-.491-.278-.71 0-1.147 0 0 3.2-4.426 3.533-5.929h.001Z"/></g></symbol></svg>
