<?xml version="1.0" standalone="no"?>
<!DOCTYPE svg PUBLIC "-//W3C//DTD SVG 20010904//EN"
 "http://www.w3.org/TR/2001/REC-SVG-20010904/DTD/svg10.dtd">
<svg version="1.0" xmlns="http://www.w3.org/2000/svg"
 width="151.000000pt" height="150.000000pt" viewBox="0 0 151.000000 150.000000"
 preserveAspectRatio="xMidYMid meet">
<metadata>
Created by potrace 1.16, written by Peter Selinger 2001-2019
</metadata>
<g transform="translate(0.000000,150.000000) scale(0.100000,-0.100000)"
fill="#000000" stroke="none">
<path d="M165 1142 c-47 -23 -89 -65 -106 -107 -17 -45 -25 -451 -9 -499 27
-82 103 -136 192 -136 46 0 68 9 202 83 l151 82 150 2 150 2 145 -82 c144 -81
146 -82 216 -82 60 0 77 4 112 28 24 15 51 45 64 70 21 40 21 53 19 262 -1
121 -7 237 -12 258 -13 49 -76 113 -126 126 -84 24 -123 12 -278 -82 l-109
-67 -179 0 -179 0 -127 76 c-108 65 -134 77 -181 81 -40 3 -66 -1 -95 -15z
m118 -108 c18 -9 80 -45 140 -81 l107 -64 0 -114 0 -114 -97 -54 c-169 -95
-180 -99 -213 -92 -20 4 -38 18 -49 36 -16 26 -18 50 -14 222 2 106 6 202 9
215 4 20 56 62 77 62 4 0 22 -7 40 -16z m1006 1 c16 -8 32 -22 37 -32 4 -10
10 -111 12 -225 l4 -208 -30 -30 c-17 -16 -41 -30 -53 -30 -12 0 -72 28 -133
62 -61 34 -123 68 -138 76 l-28 13 0 112 0 112 128 76 c163 98 158 97 201 74z
m-439 -255 l0 -100 -100 0 -100 0 0 100 0 100 100 0 100 0 0 -100z"/>
</g>
</svg>
